Sean-Semi-Bold.ufo
<glyph name="exclam" format="1">
  <advance width="424"/>
  <unicode hex="0021"/>
  <outline>
    <contour>
      <point x="196" y="229" type="line"/>
      <point x="188" y="722" type="line"/>
      <point x="291" y="722" type="line"/>
      <point x="286" y="229" type="line"/>
    </contour>
    <contour>
      <point x="189" y="140" type="line"/>
      <point x="292" y="140" type="line"/>
      <point x="292" y="0" type="line"/>
      <point x="189" y="0" type="line"/>
    </contour>
  </outline>
</glyph>
<glyph name="quotedbl" format="1">
  <advance width="457"/>
  <unicode hex="0022"/>
  <outline>
    <contour>
      <point x="259" y="658" type="line"/>
      <point x="294" y="846" type="line"/>
      <point x="391" y="846" type="line"/>
      <point x="349" y="658" type="line"/>
    </contour>
    <contour>
      <point x="80" y="658" type="line"/>
      <point x="115" y="846" type="line"/>
      <point x="212" y="846" type="line"/>
      <point x="170" y="658" type="line"/>
    </contour>
  </outline>
</glyph>
<glyph name="numbersign" format="1">
  <advance width="668"/>
  <unicode hex="0023"/>
  <outline>
    <contour>
      <point x="60" y="225" type="line"/>
      <point x="77" y="294" type="line"/>
      <point x="162" y="297" type="line"/>
      <point x="206" y="445" type="line"/>
      <point x="126" y="442" type="line"/>
      <point x="143" y="512" type="line"/>
      <point x="227" y="515" type="line"/>
      <point x="285" y="706" type="line"/>
      <point x="357" y="706" type="line"/>
      <point x="300" y="518" type="line"/>
      <point x="441" y="523" type="line"/>
      <point x="501" y="720" type="line"/>
      <point x="572" y="720" type="line"/>
      <point x="513" y="526" type="line"/>
      <point x="585" y="529" type="line"/>
      <point x="574" y="458" type="line"/>
      <point x="491" y="455" type="line"/>
      <point x="446" y="308" type="line"/>
      <point x="518" y="311" type="line"/>
      <point x="504" y="240" type="line"/>
      <point x="425" y="237" type="line"/>
      <point x="364" y="38" type="line"/>
      <point x="292" y="38" type="line"/>
      <point x="352" y="235" type="line"/>
      <point x="213" y="230" type="line"/>
      <point x="153" y="30" type="line"/>
      <point x="81" y="30" type="line"/>
      <point x="141" y="228" type="line"/>
    </contour>
    <contour>
      <point x="279" y="447" type="line"/>
      <point x="235" y="300" type="line"/>
      <point x="374" y="305" type="line"/>
      <point x="419" y="452" type="line"/>
    </contour>
  </outline>
</glyph>
<glyph name="quotesingle" format="1">
  <advance width="276"/>
  <unicode hex="0027"/>
  <outline>
    <contour>
      <point x="84" y="658" type="line"/>
      <point x="122" y="846" type="line"/>
      <point x="213" y="846" type="line"/>
      <point x="174" y="658" type="line"/>
    </contour>
  </outline>
</glyph>
<glyph name="parenleft" format="1">
  <advance width="465"/>
  <unicode hex="0028"/>
  <outline>
    <contour>
      <point x="383" y="865" type="line"/>
      <point x="243" y="724"/>
      <point x="162" y="540"/>
      <point x="162" y="327" type="curve" smooth="yes"/>
      <point x="162" y="128"/>
      <point x="238" y="-64"/>
      <point x="376" y="-208" type="curve"/>
      <point x="307" y="-279" type="line"/>
      <point x="150" y="-117"/>
      <point x="63" y="99"/>
      <point x="63" y="324" type="curve" smooth="yes"/>
      <point x="63" y="556"/>
      <point x="149" y="765"/>
      <point x="304" y="926" type="curve"/>
    </contour>
  </outline>
</glyph>
<glyph name="parenright" format="1">
  <advance width="466"/>
  <unicode hex="0029"/>
  <outline>
    <contour>
      <point x="294" y="318" type="curve" smooth="yes"/>
      <point x="294" y="529"/>
      <point x="215" y="716"/>
      <point x="71" y="859" type="curve"/>
      <point x="141" y="930" type="line"/>
      <point x="302" y="771"/>
      <point x="395" y="563"/>
      <point x="395" y="320" type="curve" smooth="yes"/>
      <point x="395" y="91"/>
      <point x="304" y="-128"/>
      <point x="141" y="-290" type="curve"/>
      <point x="62" y="-229" type="line"/>
      <point x="211" y="-86"/>
      <point x="294" y="112"/>
    </contour>
  </outline>
</glyph>
<glyph name="plus" format="1">
  <advance width="760"/>
  <unicode hex="002B"/>
  <outline>
    <contour>
      <point x="104" y="277" type="line"/>
      <point x="104" y="367" type="line"/>
      <point x="342" y="367" type="line"/>
      <point x="343" y="588" type="line"/>
      <point x="436" y="588" type="line"/>
      <point x="436" y="366" type="line"/>
      <point x="663" y="366" type="line"/>
      <point x="663" y="276" type="line"/>
      <point x="435" y="276" type="line"/>
      <point x="435" y="18" type="line"/>
      <point x="341" y="18" type="line"/>
      <point x="342" y="277" type="line"/>
    </contour>
  </outline>
</glyph>
<glyph name="comma" format="1">
  <advance width="345"/>
  <unicode hex="002C"/>
  <outline>
    <contour>
      <point x="58" y="-115" type="line"/>
      <point x="146" y="92" type="line"/>
      <point x="261" y="92" type="line"/>
      <point x="136" y="-115" type="line"/>
    </contour>
  </outline>
</glyph>
<glyph name="hyphen" format="1">
  <advance width="409"/>
  <unicode hex="002D"/>
  <outline>
    <contour>
      <point x="69" y="317" type="line"/>
      <point x="349" y="317" type="line"/>
      <point x="349" y="227" type="line"/>
      <point x="69" y="227" type="line"/>
    </contour>
  </outline>
</glyph>
<glyph name="period" format="1">
  <advance width="348"/>
  <unicode hex="002E"/>
  <outline>
    <contour>
      <point x="124" y="164" type="line"/>
      <point x="233" y="164" type="line"/>
      <point x="233" y="0" type="line"/>
      <point x="124" y="0" type="line"/>
    </contour>
  </outline>
</glyph>
<glyph name="slash" format="1">
  <advance width="581"/>
  <unicode hex="002F"/>
  <outline>
    <contour>
      <point x="146" y="-68" type="line"/>
      <point x="44" y="-68" type="line"/>
      <point x="453" y="844" type="line"/>
      <point x="555" y="844" type="line"/>
    </contour>
  </outline>
</glyph>
<glyph name="zero" format="1">
  <advance width="584"/>
  <unicode hex="0030"/>
  <outline>
    <contour>
      <point x="153" y="251" type="curve" smooth="yes"/>
      <point x="153" y="159"/>
      <point x="208" y="74"/>
      <point x="293" y="74" type="curve" smooth="yes"/>
      <point x="376" y="74"/>
      <point x="441" y="158"/>
      <point x="441" y="257" type="curve" smooth="yes"/>
      <point x="441" y="347"/>
      <point x="387" y="430"/>
      <point x="300" y="430" type="curve" smooth="yes"/>
      <point x="213" y="430"/>
      <point x="153" y="346"/>
    </contour>
    <contour>
      <point x="296" y="-21" type="line" smooth="yes"/>
      <point x="159" y="-21"/>
      <point x="50" y="103"/>
      <point x="50" y="256" type="curve" smooth="yes"/>
      <point x="50" y="401"/>
      <point x="153" y="528"/>
      <point x="294" y="529" type="curve"/>
      <point x="296" y="529" type="line" smooth="yes"/>
      <point x="438" y="529"/>
      <point x="541" y="401"/>
      <point x="541" y="254" type="curve" smooth="yes"/>
      <point x="541" y="103"/>
      <point x="436" y="-20"/>
      <point x="299" y="-21" type="curve"/>
    </contour>
  </outline>
</glyph>
<glyph name="one" format="1">
  <advance width="340"/>
  <unicode hex="0031"/>
  <outline>
    <contour>
      <point x="175" y="497" type="line"/>
      <point x="277" y="497" type="line"/>
      <point x="278" y="0" type="line"/>
      <point x="175" y="0" type="line"/>
      <point x="175" y="379" type="line"/>
      <point x="51" y="274" type="line"/>
      <point x="-10" y="340" type="line"/>
    </contour>
  </outline>
</glyph>
<glyph name="two" format="1">
  <advance width="465"/>
  <unicode hex="0032"/>
  <outline>
    <contour>
      <point x="313" y="337" type="curve" smooth="yes"/>
      <point x="313" y="393"/>
      <point x="276" y="446"/>
      <point x="208" y="446" type="curve" smooth="yes"/>
      <point x="159" y="446"/>
      <point x="120" y="408"/>
      <point x="86" y="360" type="curve"/>
      <point x="21" y="415" type="line"/>
      <point x="75" y="488"/>
      <point x="140" y="540"/>
      <point x="219" y="540" type="curve" smooth="yes"/>
      <point x="338" y="540"/>
      <point x="405" y="450"/>
      <point x="405" y="352" type="curve" smooth="yes"/>
      <point x="405" y="230"/>
      <point x="336" y="143"/>
      <point x="256" y="102" type="curve"/>
      <point x="453" y="102" type="line"/>
      <point x="453" y="12" type="line"/>
      <point x="25" y="12" type="line"/>
      <point x="25" y="102" type="line"/>
      <point x="145" y="102"/>
      <point x="239" y="149"/>
      <point x="292" y="256" type="curve" smooth="yes"/>
      <point x="306" y="284"/>
      <point x="313" y="311"/>
    </contour>
  </outline>
</glyph>
<glyph name="three" format="1">
  <advance width="562"/>
  <unicode hex="0033"/>
  <outline>
    <contour>
      <point x="361" y="313" type="curve" smooth="yes"/>
      <point x="361" y="392"/>
      <point x="295" y="437"/>
      <point x="206" y="437" type="curve" smooth="yes"/>
      <point x="153" y="437"/>
      <point x="108" y="416"/>
      <point x="69" y="375" type="curve"/>
      <point x="30" y="441" type="line"/>
      <point x="86" y="498"/>
      <point x="150" y="527"/>
      <point x="222" y="527" type="curve" smooth="yes"/>
      <point x="362" y="527"/>
      <point x="461" y="452"/>
      <point x="461" y="320" type="curve" smooth="yes"/>
      <point x="461" y="245"/>
      <point x="426" y="187"/>
      <point x="368" y="147" type="curve"/>
      <point x="431" y="123"/>
      <point x="498" y="56"/>
      <point x="498" y="-36" type="curve" smooth="yes"/>
      <point x="498" y="-163"/>
      <point x="349" y="-255"/>
      <point x="209" y="-255" type="curve" smooth="yes"/>
      <point x="158" y="-255"/>
      <point x="108" y="-244"/>
      <point x="61" y="-222" type="curve"/>
      <point x="96" y="-139" type="line"/>
      <point x="130" y="-158"/>
      <point x="168" y="-167"/>
      <point x="205" y="-167" type="curve" smooth="yes"/>
      <point x="285" y="-167"/>
      <point x="391" y="-115"/>
      <point x="391" y="-33" type="curve" smooth="yes"/>
      <point x="391" y="-22"/>
      <point x="389" y="-10"/>
      <point x="385" y="2" type="curve" smooth="yes"/>
      <point x="357" y="83"/>
      <point x="276" y="88"/>
      <point x="187" y="88" type="curve" smooth="yes"/>
      <point x="152" y="88" type="line"/>
      <point x="151" y="88" type="line"/>
      <point x="150" y="172" type="line"/>
      <point x="264" y="172"/>
      <point x="361" y="214"/>
    </contour>
  </outline>
</glyph>
<glyph name="four" format="1">
  <advance width="620"/>
  <unicode hex="0034"/>
  <outline>
    <contour>
      <point x="146" y="126" type="line"/>
      <point x="360" y="126" type="line"/>
      <point x="361" y="395" type="line"/>
    </contour>
    <contour>
      <point x="28" y="126" type="line"/>
      <point x="362" y="527" type="line"/>
      <point x="464" y="527" type="line"/>
      <point x="462" y="126" type="line"/>
      <point x="599" y="126" type="line"/>
      <point x="599" y="36" type="line"/>
      <point x="462" y="36" type="line"/>
      <point x="461" y="-222" type="line"/>
      <point x="359" y="-222" type="line"/>
      <point x="360" y="36" type="line"/>
      <point x="28" y="36" type="line"/>
    </contour>
  </outline>
</glyph>
<glyph name="five" format="1">
  <advance width="526"/>
  <unicode hex="0035"/>
  <outline>
    <contour>
      <point x="264" y="253" type="curve" smooth="yes"/>
      <point x="404" y="253"/>
      <point x="516" y="164"/>
      <point x="516" y="-3" type="curve" smooth="yes"/>
      <point x="516" y="-147"/>
      <point x="404" y="-253"/>
      <point x="256" y="-253" type="curve" smooth="yes"/>
      <point x="198" y="-253"/>
      <point x="134" y="-236"/>
      <point x="69" y="-199" type="curve"/>
      <point x="112" y="-120" type="line"/>
      <point x="159" y="-147"/>
      <point x="205" y="-159"/>
      <point x="246" y="-159" type="curve" smooth="yes"/>
      <point x="345" y="-159"/>
      <point x="419" y="-91"/>
      <point x="419" y="1" type="curve" smooth="yes"/>
      <point x="419" y="111"/>
      <point x="343" y="162"/>
      <point x="250" y="162" type="curve" smooth="yes"/>
      <point x="229" y="162"/>
      <point x="207" y="160"/>
      <point x="184" y="156" type="curve"/>
      <point x="88" y="156" type="line"/>
      <point x="89" y="534" type="line"/>
      <point x="447" y="534" type="line"/>
      <point x="447" y="443" type="line"/>
      <point x="185" y="443" type="line"/>
      <point x="184" y="246" type="line"/>
      <point x="212" y="251"/>
      <point x="239" y="253"/>
    </contour>
  </outline>
</glyph>
<glyph name="six" format="1">
  <advance width="599"/>
  <unicode hex="0036"/>
  <outline>
    <contour>
      <point x="505" y="742" type="curve"/>
      <point x="542" y="653" type="line"/>
      <point x="448" y="618"/>
      <point x="361" y="566"/>
      <point x="286" y="500" type="curve" smooth="yes"/>
      <point x="240" y="460"/>
      <point x="200" y="413"/>
      <point x="176" y="361" type="curve"/>
      <point x="220" y="390"/>
      <point x="271" y="406"/>
      <point x="325" y="406" type="curve" smooth="yes"/>
      <point x="449" y="406"/>
      <point x="550" y="332"/>
      <point x="550" y="207" type="curve" smooth="yes"/>
      <point x="550" y="89"/>
      <point x="445" y="-10"/>
      <point x="314" y="-10" type="curve" smooth="yes"/>
      <point x="163" y="-10"/>
      <point x="55" y="107"/>
      <point x="55" y="256" type="curve" smooth="yes"/>
      <point x="55" y="360"/>
      <point x="110" y="458"/>
      <point x="183" y="536" type="curve" smooth="yes"/>
      <point x="271" y="631"/>
      <point x="382" y="702"/>
    </contour>
    <contour>
      <point x="440" y="202" type="curve" smooth="yes"/>
      <point x="440" y="273"/>
      <point x="370" y="326"/>
      <point x="286" y="326" type="curve" smooth="yes"/>
      <point x="237" y="326"/>
      <point x="189" y="308"/>
      <point x="154" y="274" type="curve"/>
      <point x="154" y="268" type="line" smooth="yes"/>
      <point x="154" y="166"/>
      <point x="230" y="94"/>
      <point x="315" y="94" type="curve" smooth="yes"/>
      <point x="383" y="94"/>
      <point x="440" y="137"/>
    </contour>
  </outline>
</glyph>
<glyph name="seven" format="1">
  <advance width="579"/>
  <unicode hex="0037"/>
  <outline>
    <contour>
      <point x="85" y="512" type="line"/>
      <point x="531" y="511" type="line"/>
      <point x="531" y="415" type="line"/>
      <point x="191" y="-222" type="line"/>
      <point x="82" y="-222" type="line"/>
      <point x="419" y="415" type="line"/>
      <point x="85" y="415" type="line"/>
    </contour>
  </outline>
</glyph>
<glyph name="eight" format="1">
  <advance width="588"/>
  <unicode hex="0038"/>
  <outline>
    <contour>
      <point x="294" y="597" type="curve" smooth="yes"/>
      <point x="244" y="597"/>
      <point x="194" y="569"/>
      <point x="194" y="511" type="curve" smooth="yes"/>
      <point x="194" y="459"/>
      <point x="250" y="418"/>
      <point x="313" y="386" type="curve"/>
      <point x="364" y="416"/>
      <point x="408" y="454"/>
      <point x="408" y="503" type="curve" smooth="yes"/>
      <point x="408" y="564"/>
      <point x="351" y="597"/>
    </contour>
    <contour>
      <point x="295" y="-37" type="curve" smooth="yes"/>
      <point x="183" y="-37"/>
      <point x="85" y="41"/>
      <point x="85" y="146" type="curve" smooth="yes"/>
      <point x="85" y="229"/>
      <point x="145" y="290"/>
      <point x="219" y="335" type="curve"/>
      <point x="152" y="377"/>
      <point x="100" y="436"/>
      <point x="100" y="511" type="curve" smooth="yes"/>
      <point x="100" y="616"/>
      <point x="197" y="686"/>
      <point x="302" y="686" type="curve" smooth="yes"/>
      <point x="413" y="686"/>
      <point x="507" y="615"/>
      <point x="507" y="510" type="curve" smooth="yes"/>
      <point x="507" y="440"/>
      <point x="461" y="383"/>
      <point x="400" y="343" type="curve"/>
      <point x="467" y="303"/>
      <point x="520" y="245"/>
      <point x="520" y="160" type="curve" smooth="yes"/>
      <point x="520" y="48"/>
      <point x="415" y="-37"/>
    </contour>
    <contour>
      <point x="316" y="50" type="curve" smooth="yes"/>
      <point x="374" y="50"/>
      <point x="432" y="86"/>
      <point x="432" y="152" type="curve" smooth="yes"/>
      <point x="432" y="214"/>
      <point x="368" y="256"/>
      <point x="301" y="291" type="curve"/>
      <point x="240" y="259"/>
      <point x="185" y="220"/>
      <point x="185" y="162" type="curve" smooth="yes"/>
      <point x="185" y="97"/>
      <point x="247" y="50"/>
    </contour>
  </outline>
</glyph>
<glyph name="nine" format="1">
  <advance width="606"/>
  <unicode hex="0039"/>
  <outline>
    <contour>
      <point x="298" y="519" type="curve" smooth="yes"/>
      <point x="458" y="519"/>
      <point x="546" y="380"/>
      <point x="546" y="239" type="curve" smooth="yes"/>
      <point x="546" y="119"/>
      <point x="483" y="12"/>
      <point x="401" y="-71" type="curve" smooth="yes"/>
      <point x="325" y="-148"/>
      <point x="231" y="-205"/>
      <point x="128" y="-238" type="curve"/>
      <point x="90" y="-143" type="line"/>
      <point x="222" y="-104"/>
      <point x="350" y="-11"/>
      <point x="413" y="108" type="curve"/>
      <point x="377" y="88"/>
      <point x="336" y="77"/>
      <point x="294" y="77" type="curve" smooth="yes"/>
      <point x="166" y="77"/>
      <point x="66" y="162"/>
      <point x="66" y="293" type="curve" smooth="yes"/>
      <point x="66" y="416"/>
      <point x="171" y="519"/>
    </contour>
    <contour>
      <point x="177" y="299" type="curve" smooth="yes"/>
      <point x="177" y="227"/>
      <point x="240" y="168"/>
      <point x="323" y="168" type="curve" smooth="yes"/>
      <point x="371" y="168"/>
      <point x="416" y="190"/>
      <point x="446" y="225" type="curve"/>
      <point x="446" y="232" type="line" smooth="yes"/>
      <point x="446" y="332"/>
      <point x="377" y="413"/>
      <point x="294" y="413" type="curve" smooth="yes"/>
      <point x="225" y="413"/>
      <point x="177" y="361"/>
    </contour>
  </outline>
</glyph>
<glyph name="colon" format="1">
  <advance width="373"/>
  <unicode hex="003A"/>
  <outline>
    <contour>
      <point x="142" y="151" type="line"/>
      <point x="245" y="151" type="line"/>
      <point x="245" y="0" type="line"/>
      <point x="142" y="0" type="line"/>
    </contour>
    <contour>
      <point x="142" y="491" type="line"/>
      <point x="245" y="491" type="line"/>
      <point x="245" y="341" type="line"/>
      <point x="142" y="341" type="line"/>
    </contour>
  </outline>
</glyph>
<glyph name="semicolon" format="1">
  <advance width="345"/>
  <unicode hex="003B"/>
  <outline>
    <contour>
      <point x="145" y="341" type="line"/>
      <point x="145" y="491" type="line"/>
      <point x="248" y="491" type="line"/>
      <point x="248" y="341" type="line"/>
    </contour>
    <contour>
      <point x="52" y="-95" type="line"/>
      <point x="149" y="92" type="line"/>
      <point x="258" y="92" type="line"/>
      <point x="142" y="-95" type="line"/>
    </contour>
  </outline>
</glyph>
<glyph name="less" format="1">
  <advance width="823"/>
  <unicode hex="003C"/>
  <outline>
    <contour>
      <point x="229" y="301" type="line"/>
      <point x="711" y="88" type="line"/>
      <point x="711" y="-15" type="line"/>
      <point x="116" y="249" type="line"/>
      <point x="116" y="351" type="line"/>
      <point x="701" y="621" type="line"/>
      <point x="701" y="519" type="line"/>
    </contour>
  </outline>
</glyph>
<glyph name="equal" format="1">
  <advance width="844"/>
  <unicode hex="003D"/>
  <outline>
    <contour>
      <point x="118" y="262" type="line"/>
      <point x="723" y="262" type="line"/>
      <point x="723" y="172" type="line"/>
      <point x="118" y="172" type="line"/>
    </contour>
    <contour>
      <point x="118" y="485" type="line"/>
      <point x="723" y="485" type="line"/>
      <point x="723" y="395" type="line"/>
      <point x="118" y="395" type="line"/>
    </contour>
  </outline>
</glyph>
<glyph name="greater" format="1">
  <advance width="823"/>
  <unicode hex="003E"/>
  <outline>
    <contour>
      <point x="132" y="-15" type="line"/>
      <point x="132" y="88" type="line"/>
      <point x="605" y="301" type="line"/>
      <point x="118" y="519" type="line"/>
      <point x="118" y="621" type="line"/>
      <point x="719" y="352" type="line"/>
      <point x="719" y="250" type="line"/>
    </contour>
  </outline>
</glyph>
<glyph name="question" format="1">
  <advance width="564"/>
  <unicode hex="003F"/>
  <outline>
    <contour>
      <point x="220" y="397" type="line"/>
      <point x="314" y="397"/>
      <point x="411" y="441"/>
      <point x="411" y="540" type="curve" smooth="yes"/>
      <point x="411" y="614"/>
      <point x="349" y="669"/>
      <point x="281" y="669" type="curve" smooth="yes"/>
      <point x="255" y="669"/>
      <point x="228" y="661"/>
      <point x="204" y="643" type="curve"/>
      <point x="167" y="725" type="line"/>
      <point x="207" y="751"/>
      <point x="249" y="762"/>
      <point x="289" y="762" type="curve" smooth="yes"/>
      <point x="409" y="762"/>
      <point x="515" y="663"/>
      <point x="515" y="539" type="curve" smooth="yes"/>
      <point x="515" y="411"/>
      <point x="423" y="342"/>
      <point x="322" y="318" type="curve"/>
      <point x="321" y="226" type="line"/>
      <point x="219" y="226" type="line"/>
      <point x="220" y="337" type="line"/>
    </contour>
    <contour>
      <point x="327" y="-10" type="line"/>
      <point x="212" y="-10" type="line"/>
      <point x="212" y="144" type="line"/>
      <point x="327" y="144" type="line"/>
    </contour>
  </outline>
</glyph>
<glyph name="at" format="1">
  <advance width="850"/>
  <unicode hex="0040"/>
  <outline>
    <contour>
      <point x="722" y="243" type="curve" smooth="yes"/>
      <point x="722" y="393"/>
      <point x="592" y="506"/>
      <point x="437" y="506" type="curve" smooth="yes"/>
      <point x="271" y="506"/>
      <point x="135" y="376"/>
      <point x="135" y="211" type="curve" smooth="yes"/>
      <point x="135" y="43"/>
      <point x="278" y="-87"/>
      <point x="448" y="-87" type="curve" smooth="yes"/>
      <point x="450" y="-87" type="line"/>
      <point x="530" y="-86"/>
      <point x="606" y="-54"/>
      <point x="663" y="1" type="curve"/>
      <point x="715" y="-57" type="line"/>
      <point x="643" y="-125"/>
      <point x="547" y="-162"/>
      <point x="447" y="-162" type="curve" smooth="yes"/>
      <point x="234" y="-162"/>
      <point x="58" y="-1"/>
      <point x="58" y="207" type="curve" smooth="yes"/>
      <point x="58" y="415"/>
      <point x="233" y="578"/>
      <point x="442" y="578" type="curve" smooth="yes"/>
      <point x="641" y="578"/>
      <point x="799" y="433"/>
      <point x="799" y="250" type="curve" smooth="yes"/>
      <point x="799" y="120"/>
      <point x="712" y="21"/>
      <point x="620" y="21" type="curve" smooth="yes"/>
      <point x="578" y="21"/>
      <point x="538" y="44"/>
      <point x="519" y="72" type="curve"/>
      <point x="489" y="49"/>
      <point x="451" y="36"/>
      <point x="413" y="36" type="curve" smooth="yes"/>
      <point x="308" y="36"/>
      <point x="238" y="114"/>
      <point x="238" y="216" type="curve" smooth="yes"/>
      <point x="238" y="326"/>
      <point x="330" y="415"/>
      <point x="441" y="415" type="curve" smooth="yes"/>
      <point x="528" y="415"/>
      <point x="601" y="366"/>
      <point x="601" y="283" type="curve" smooth="yes"/>
      <point x="601" y="238"/>
      <point x="576" y="197"/>
      <point x="576" y="149" type="curve" smooth="yes"/>
      <point x="576" y="118"/>
      <point x="597" y="92"/>
      <point x="626" y="92" type="curve" smooth="yes"/>
      <point x="671" y="92"/>
      <point x="722" y="152"/>
    </contour>
    <contour>
      <point x="316" y="212" type="curve" smooth="yes"/>
      <point x="316" y="149"/>
      <point x="360" y="99"/>
      <point x="417" y="99" type="curve" smooth="yes"/>
      <point x="419" y="99" type="line" smooth="yes"/>
      <point x="454" y="99"/>
      <point x="484" y="120"/>
      <point x="498" y="151" type="curve"/>
      <point x="501" y="195"/>
      <point x="522" y="287"/>
      <point x="522" y="298" type="curve" smooth="yes"/>
      <point x="522" y="327"/>
      <point x="468" y="342"/>
      <point x="445" y="342" type="curve" smooth="yes"/>
      <point x="443" y="342" type="line" smooth="yes"/>
      <point x="371" y="342"/>
      <point x="316" y="283"/>
    </contour>
  </outline>
</glyph>
<glyph name="A" format="1">
  <advance width="763"/>
  <unicode hex="0041"/>
  <outline>
    <contour>
      <point x="509" y="283" type="line"/>
      <point x="413" y="585" type="line"/>
      <point x="282" y="283" type="line"/>
    </contour>
    <contour>
      <point x="536" y="198" type="line"/>
      <point x="244" y="197" type="line"/>
      <point x="158" y="0" type="line"/>
      <point x="49" y="0" type="line"/>
      <point x="370" y="721" type="line"/>
      <point x="473" y="721" type="line"/>
      <point x="705" y="1" type="line"/>
      <point x="599" y="1" type="line"/>
    </contour>
  </outline>
</glyph>
<glyph name="B" format="1">
  <advance width="646"/>
  <unicode hex="0042"/>
  <outline>
    <contour>
      <point x="282" y="722" type="line" smooth="yes"/>
      <point x="417" y="722"/>
      <point x="537" y="678"/>
      <point x="537" y="543" type="curve" smooth="yes"/>
      <point x="537" y="479"/>
      <point x="503" y="431"/>
      <point x="449" y="401" type="curve"/>
      <point x="529" y="368"/>
      <point x="581" y="307"/>
      <point x="581" y="214" type="curve" smooth="yes"/>
      <point x="581" y="68"/>
      <point x="447" y="0"/>
      <point x="286" y="0" type="curve" smooth="yes"/>
      <point x="94" y="0" type="line"/>
      <point x="94" y="722" type="line"/>
    </contour>
    <contour>
      <point x="436" y="540" type="curve" smooth="yes"/>
      <point x="436" y="619"/>
      <point x="360" y="635"/>
      <point x="282" y="635" type="curve" smooth="yes"/>
      <point x="197" y="635" type="line"/>
      <point x="197" y="442" type="line"/>
      <point x="284" y="442" type="line" smooth="yes"/>
      <point x="367" y="442"/>
      <point x="436" y="474"/>
    </contour>
    <contour>
      <point x="286" y="87" type="line" smooth="yes"/>
      <point x="388" y="87"/>
      <point x="479" y="122"/>
      <point x="479" y="222" type="curve" smooth="yes"/>
      <point x="479" y="312"/>
      <point x="391" y="359"/>
      <point x="284" y="359" type="curve" smooth="yes"/>
      <point x="255" y="359"/>
      <point x="226" y="358"/>
      <point x="197" y="358" type="curve"/>
      <point x="197" y="87" type="line"/>
    </contour>
  </outline>
</glyph>
<glyph name="C" format="1">
  <advance width="686"/>
  <unicode hex="0043"/>
  <outline>
    <contour>
      <point x="424" y="95" type="curve" smooth="yes"/>
      <point x="503" y="95"/>
      <point x="563" y="116"/>
      <point x="619" y="154" type="curve"/>
      <point x="672" y="70" type="line"/>
      <point x="595" y="21"/>
      <point x="509" y="-7"/>
      <point x="410" y="-7" type="curve" smooth="yes"/>
      <point x="198" y="-7"/>
      <point x="66" y="135"/>
      <point x="66" y="355" type="curve" smooth="yes"/>
      <point x="66" y="585"/>
      <point x="205" y="732"/>
      <point x="415" y="732" type="curve" smooth="yes"/>
      <point x="517" y="732"/>
      <point x="594" y="706"/>
      <point x="669" y="662" type="curve"/>
      <point x="622" y="578" type="line"/>
      <point x="565" y="613"/>
      <point x="499" y="632"/>
      <point x="432" y="632" type="curve" smooth="yes"/>
      <point x="430" y="632" type="line" smooth="yes"/>
      <point x="271" y="632"/>
      <point x="175" y="527"/>
      <point x="175" y="357" type="curve" smooth="yes"/>
      <point x="175" y="199"/>
      <point x="273" y="95"/>
    </contour>
  </outline>
</glyph>
<glyph name="D" format="1">
  <advance width="701"/>
  <unicode hex="0044"/>
  <outline>
    <contour>
      <point x="279" y="722" type="line" smooth="yes"/>
      <point x="512" y="722"/>
      <point x="658" y="590"/>
      <point x="658" y="350" type="curve" smooth="yes"/>
      <point x="658" y="131"/>
      <point x="547" y="0"/>
      <point x="326" y="0" type="curve" smooth="yes"/>
      <point x="66" y="0" type="line"/>
      <point x="66" y="722" type="line"/>
    </contour>
    <contour>
      <point x="550" y="345" type="curve" smooth="yes"/>
      <point x="550" y="514"/>
      <point x="454" y="620"/>
      <point x="295" y="620" type="curve" smooth="yes"/>
      <point x="168" y="620" type="line"/>
      <point x="168" y="102" type="line"/>
      <point x="289" y="102" type="line" smooth="yes"/>
      <point x="455" y="102"/>
      <point x="550" y="188"/>
    </contour>
  </outline>
</glyph>
<glyph name="E" format="1">
  <advance width="621"/>
  <unicode hex="0045"/>
  <outline>
    <contour>
      <point x="99" y="0" type="line"/>
      <point x="99" y="722" type="line"/>
      <point x="531" y="722" type="line"/>
      <point x="531" y="623" type="line"/>
      <point x="202" y="623" type="line"/>
      <point x="202" y="423" type="line"/>
      <point x="453" y="423" type="line"/>
      <point x="453" y="324" type="line"/>
      <point x="202" y="324" type="line"/>
      <point x="202" y="99" type="line"/>
      <point x="563" y="99" type="line"/>
      <point x="563" y="0" type="line"/>
    </contour>
  </outline>
</glyph>
<glyph name="F" format="1">
  <advance width="585"/>
  <unicode hex="0046"/>
  <outline>
    <contour>
      <point x="99" y="0" type="line"/>
      <point x="99" y="722" type="line"/>
      <point x="534" y="722" type="line"/>
      <point x="534" y="623" type="line"/>
      <point x="202" y="623" type="line"/>
      <point x="202" y="423" type="line"/>
      <point x="466" y="423" type="line"/>
      <point x="466" y="324" type="line"/>
      <point x="202" y="324" type="line"/>
      <point x="202" y="0" type="line"/>
    </contour>
  </outline>
</glyph>
<glyph name="G" format="1">
  <advance width="781"/>
  <unicode hex="0047"/>
  <outline>
    <contour>
      <point x="437" y="84" type="curve" smooth="yes"/>
      <point x="508" y="84"/>
      <point x="563" y="98"/>
      <point x="621" y="122" type="curve"/>
      <point x="620" y="261" type="line"/>
      <point x="483" y="261" type="line"/>
      <point x="483" y="354" type="line"/>
      <point x="714" y="354" type="line"/>
      <point x="714" y="76" type="line"/>
      <point x="624" y="22"/>
      <point x="526" y="-6"/>
      <point x="416" y="-6" type="curve" smooth="yes"/>
      <point x="198" y="-6"/>
      <point x="67" y="127"/>
      <point x="67" y="352" type="curve" smooth="yes"/>
      <point x="67" y="582"/>
      <point x="210" y="730"/>
      <point x="429" y="730" type="curve" smooth="yes"/>
      <point x="533" y="730"/>
      <point x="613" y="704"/>
      <point x="692" y="658" type="curve"/>
      <point x="647" y="572" type="line"/>
      <point x="586" y="610"/>
      <point x="519" y="629"/>
      <point x="442" y="629" type="curve" smooth="yes"/>
      <point x="278" y="629"/>
      <point x="172" y="522"/>
      <point x="172" y="351" type="curve" smooth="yes"/>
      <point x="172" y="184"/>
      <point x="275" y="84"/>
    </contour>
  </outline>
</glyph>
<glyph name="H" format="1">
  <advance width="760"/>
  <unicode hex="0048"/>
  <outline>
    <contour>
      <point x="584" y="722" type="line"/>
      <point x="687" y="722" type="line"/>
      <point x="687" y="0" type="line"/>
      <point x="584" y="0" type="line"/>
      <point x="584" y="314" type="line"/>
      <point x="182" y="314" type="line"/>
      <point x="182" y="0" type="line"/>
      <point x="79" y="0" type="line"/>
      <point x="80" y="722" type="line"/>
      <point x="182" y="722" type="line"/>
      <point x="182" y="410" type="line"/>
      <point x="584" y="410" type="line"/>
    </contour>
  </outline>
</glyph>
<glyph name="J" format="1">
  <advance width="321"/>
  <unicode hex="004A"/>
  <outline>
    <contour>
      <point x="244" y="0" type="line" smooth="yes"/>
      <point x="244" y="-120"/>
      <point x="166" y="-235"/>
      <point x="42" y="-235" type="curve" smooth="yes"/>
      <point x="4" y="-235"/>
      <point x="-33" y="-222"/>
      <point x="-62" y="-197" type="curve"/>
      <point x="-16" y="-119" type="line"/>
      <point x="0" y="-136"/>
      <point x="22" y="-145"/>
      <point x="44" y="-145" type="curve" smooth="yes"/>
      <point x="120" y="-145"/>
      <point x="142" y="-63"/>
      <point x="142" y="0" type="curve" smooth="yes"/>
      <point x="142" y="722" type="line"/>
      <point x="245" y="722" type="line"/>
    </contour>
  </outline>
</glyph>
<glyph name="K" format="1">
  <advance width="668"/>
  <unicode hex="004B"/>
  <outline>
    <contour>
      <point x="83" y="0" type="line"/>
      <point x="83" y="722" type="line"/>
      <point x="185" y="722" type="line"/>
      <point x="185" y="451" type="line"/>
      <point x="486" y="722" type="line"/>
      <point x="608" y="722" type="line"/>
      <point x="236" y="379" type="line"/>
      <point x="619" y="0" type="line"/>
      <point x="497" y="0" type="line"/>
      <point x="185" y="307" type="line"/>
      <point x="185" y="0" type="line"/>
    </contour>
  </outline>
</glyph>
<glyph name="L" format="1">
  <advance width="572"/>
  <unicode hex="004C"/>
  <outline>
    <contour>
      <point x="83" y="0" type="line"/>
      <point x="83" y="722" type="line"/>
      <point x="185" y="722" type="line"/>
      <point x="185" y="99" type="line"/>
      <point x="538" y="99" type="line"/>
      <point x="538" y="0" type="line"/>
    </contour>
  </outline>
</glyph>
<glyph name="M" format="1">
  <advance width="877"/>
  <unicode hex="004D"/>
  <outline>
    <contour>
      <point x="668" y="509" type="line"/>
      <point x="475" y="0" type="line"/>
      <point x="376" y="0" type="line"/>
      <point x="187" y="501" type="line"/>
      <point x="152" y="0" type="line"/>
      <point x="50" y="0" type="line"/>
      <point x="104" y="722" type="line"/>
      <point x="206" y="722" type="line"/>
      <point x="420" y="116" type="line"/>
      <point x="647" y="723" type="line"/>
      <point x="698" y="722" type="line"/>
      <point x="749" y="722" type="line"/>
      <point x="815" y="0" type="line"/>
      <point x="712" y="0" type="line"/>
    </contour>
  </outline>
</glyph>
<glyph name="N" format="1">
  <advance width="770"/>
  <unicode hex="004E"/>
  <outline>
    <contour>
      <point x="83" y="0" type="line"/>
      <point x="83" y="722" type="line"/>
      <point x="185" y="722" type="line"/>
      <point x="601" y="151" type="line"/>
      <point x="601" y="722" type="line"/>
      <point x="704" y="722" type="line"/>
      <point x="704" y="0" type="line"/>
      <point x="601" y="0" type="line"/>
      <point x="185" y="571" type="line"/>
      <point x="185" y="0" type="line"/>
    </contour>
  </outline>
</glyph>
<glyph name="O" format="1">
  <advance width="760"/>
  <unicode hex="004F"/>
  <outline>
    <contour>
      <point x="383" y="632" type="curve" smooth="yes"/>
      <point x="236" y="632"/>
      <point x="158" y="513"/>
      <point x="158" y="356" type="curve" smooth="yes"/>
      <point x="158" y="204"/>
      <point x="245" y="89"/>
      <point x="383" y="89" type="curve" smooth="yes"/>
      <point x="534" y="89"/>
      <point x="609" y="209"/>
      <point x="609" y="362" type="curve" smooth="yes"/>
      <point x="609" y="515"/>
      <point x="525" y="632"/>
    </contour>
    <contour>
      <point x="382" y="728" type="curve" smooth="yes"/>
      <point x="592" y="728"/>
      <point x="714" y="571"/>
      <point x="714" y="360" type="curve" smooth="yes"/>
      <point x="714" y="149"/>
      <point x="586" y="-6"/>
      <point x="381" y="-6" type="curve" smooth="yes"/>
      <point x="377" y="-6" type="line"/>
      <point x="177" y="-3"/>
      <point x="53" y="149"/>
      <point x="52" y="356" type="curve" smooth="yes"/>
      <point x="50" y="570"/>
      <point x="180" y="728"/>
    </contour>
  </outline>
</glyph>
<glyph name="P" format="1">
  <advance width="564"/>
  <unicode hex="0050"/>
  <outline>
    <contour>
      <point x="297" y="243" type="curve" smooth="yes"/>
      <point x="254" y="243"/>
      <point x="219" y="251"/>
      <point x="185" y="264" type="curve"/>
      <point x="185" y="0" type="line"/>
      <point x="83" y="0" type="line"/>
      <point x="83" y="722" type="line"/>
      <point x="258" y="722" type="line" smooth="yes"/>
      <point x="411" y="722"/>
      <point x="538" y="641"/>
      <point x="538" y="470" type="curve" smooth="yes"/>
      <point x="538" y="341"/>
      <point x="437" y="243"/>
    </contour>
    <contour>
      <point x="435" y="477" type="curve" smooth="yes"/>
      <point x="435" y="580"/>
      <point x="350" y="626"/>
      <point x="258" y="626" type="curve" smooth="yes"/>
      <point x="185" y="626" type="line"/>
      <point x="185" y="361" type="line"/>
      <point x="213" y="348"/>
      <point x="243" y="342"/>
      <point x="274" y="342" type="curve" smooth="yes"/>
      <point x="369" y="342"/>
      <point x="435" y="400"/>
    </contour>
  </outline>
</glyph>
<glyph name="Q" format="1">
  <advance width="765"/>
  <unicode hex="0051"/>
  <outline>
    <contour>
      <point x="465" y="3" type="curve"/>
      <point x="534" y="-76"/>
      <point x="642" y="-138"/>
      <point x="772" y="-146" type="curve"/>
      <point x="772" y="-236" type="line"/>
      <point x="673" y="-233"/>
      <point x="577" y="-201"/>
      <point x="495" y="-145" type="curve" smooth="yes"/>
      <point x="441" y="-107"/>
      <point x="395" y="-60"/>
      <point x="359" y="-5" type="curve"/>
      <point x="168" y="7"/>
      <point x="47" y="156"/>
      <point x="47" y="366" type="curve" smooth="yes"/>
      <point x="47" y="576"/>
      <point x="180" y="728"/>
      <point x="386" y="728" type="curve" smooth="yes"/>
      <point x="390" y="728" type="line"/>
      <point x="594" y="725"/>
      <point x="724" y="574"/>
      <point x="724" y="357" type="curve" smooth="yes"/>
      <point x="724" y="177"/>
      <point x="625" y="38"/>
    </contour>
    <contour>
      <point x="386" y="630" type="curve" smooth="yes"/>
      <point x="233" y="630"/>
      <point x="151" y="515"/>
      <point x="151" y="363" type="curve" smooth="yes"/>
      <point x="151" y="207"/>
      <point x="244" y="91"/>
      <point x="385" y="91" type="curve" smooth="yes"/>
      <point x="539" y="91"/>
      <point x="620" y="207"/>
      <point x="620" y="356" type="curve" smooth="yes"/>
      <point x="620" y="512"/>
      <point x="529" y="630"/>
    </contour>
  </outline>
</glyph>
<glyph name="R" format="1">
  <advance width="687"/>
  <unicode hex="0052"/>
  <outline>
    <contour>
      <point x="297" y="722" type="line" smooth="yes"/>
      <point x="444" y="722"/>
      <point x="570" y="663"/>
      <point x="570" y="515" type="curve" smooth="yes"/>
      <point x="570" y="426"/>
      <point x="515" y="364"/>
      <point x="432" y="331" type="curve"/>
      <point x="687" y="0" type="line"/>
      <point x="569" y="0" type="line"/>
      <point x="332" y="307" type="line"/>
      <point x="312" y="305"/>
      <point x="292" y="303"/>
      <point x="271" y="303" type="curve" smooth="yes"/>
      <point x="205" y="303" type="line"/>
      <point x="205" y="0" type="line"/>
      <point x="103" y="0" type="line"/>
      <point x="103" y="722" type="line"/>
    </contour>
    <contour>
      <point x="468" y="512" type="curve" smooth="yes"/>
      <point x="468" y="597"/>
      <point x="386" y="623"/>
      <point x="297" y="623" type="curve" smooth="yes"/>
      <point x="205" y="623" type="line"/>
      <point x="205" y="397" type="line"/>
      <point x="271" y="397" type="line" smooth="yes"/>
      <point x="376" y="397"/>
      <point x="468" y="425"/>
    </contour>
  </outline>
</glyph>
<glyph name="S" format="1">
  <advance width="587"/>
  <unicode hex="0053"/>
  <outline>
    <contour>
      <point x="454" y="594" type="line"/>
      <point x="401" y="619"/>
      <point x="347" y="636"/>
      <point x="283" y="636" type="curve" smooth="yes"/>
      <point x="223" y="636"/>
      <point x="176" y="609"/>
      <point x="175" y="553" type="curve"/>
      <point x="175" y="488"/>
      <point x="266" y="447"/>
      <point x="340" y="414" type="curve" smooth="yes"/>
      <point x="436" y="371"/>
      <point x="533" y="307"/>
      <point x="533" y="185" type="curve" smooth="yes"/>
      <point x="533" y="69"/>
      <point x="424" y="-6"/>
      <point x="282" y="-6" type="curve" smooth="yes"/>
      <point x="200" y="-6"/>
      <point x="127" y="11"/>
      <point x="55" y="39" type="curve"/>
      <point x="87" y="133" type="line"/>
      <point x="149" y="105"/>
      <point x="217" y="90"/>
      <point x="286" y="89" type="curve"/>
      <point x="290" y="89" type="line" smooth="yes"/>
      <point x="361" y="89"/>
      <point x="422" y="118"/>
      <point x="422" y="185" type="curve" smooth="yes"/>
      <point x="422" y="261"/>
      <point x="342" y="303"/>
      <point x="268" y="335" type="curve"/>
      <point x="172" y="378"/>
      <point x="68" y="434"/>
      <point x="68" y="558" type="curve" smooth="yes"/>
      <point x="68" y="661"/>
      <point x="162" y="731"/>
      <point x="287" y="731" type="curve" smooth="yes"/>
      <point x="366" y="731"/>
      <point x="427" y="711"/>
      <point x="489" y="681" type="curve"/>
    </contour>
  </outline>
</glyph>
<glyph name="T" format="1">
  <advance width="625"/>
  <unicode hex="0054"/>
  <outline>
    <contour>
      <point x="12" y="628" type="line"/>
      <point x="12" y="728" type="line"/>
      <point x="619" y="728" type="line"/>
      <point x="619" y="628" type="line"/>
      <point x="353" y="628" type="line"/>
      <point x="353" y="0" type="line"/>
      <point x="251" y="0" type="line"/>
      <point x="251" y="628" type="line"/>
    </contour>
  </outline>
</glyph>
<glyph name="U" format="1">
  <advance width="707"/>
  <unicode hex="0055"/>
  <outline>
    <contour>
      <point x="73" y="722" type="line"/>
      <point x="175" y="722" type="line"/>
      <point x="175" y="332" type="line" smooth="yes"/>
      <point x="175" y="189"/>
      <point x="243" y="94"/>
      <point x="378" y="94" type="curve" smooth="yes"/>
      <point x="492" y="94"/>
      <point x="553" y="179"/>
      <point x="553" y="299" type="curve" smooth="yes"/>
      <point x="553" y="722" type="line"/>
      <point x="656" y="722" type="line"/>
      <point x="656" y="320" type="line" smooth="yes"/>
      <point x="656" y="126"/>
      <point x="547" y="-6"/>
      <point x="358" y="-6" type="curve" smooth="yes"/>
      <point x="173" y="-6"/>
      <point x="73" y="119"/>
      <point x="73" y="312" type="curve" smooth="yes"/>
    </contour>
  </outline>
</glyph>
<glyph name="V" format="1">
  <advance width="759"/>
  <unicode hex="0056"/>
  <outline>
    <contour>
      <point x="731" y="722" type="line"/>
      <point x="451" y="0" type="line"/>
      <point x="342" y="0" type="line"/>
      <point x="60" y="722" type="line"/>
      <point x="168" y="722" type="line"/>
      <point x="398" y="143" type="line"/>
      <point x="625" y="722" type="line"/>
    </contour>
  </outline>
</glyph>
<glyph name="W" format="1">
  <advance width="965"/>
  <unicode hex="0057"/>
  <outline>
    <contour>
      <point x="926" y="722" type="line"/>
      <point x="725" y="0" type="line"/>
      <point x="632" y="0" type="line"/>
      <point x="504" y="548" type="line"/>
      <point x="375" y="0" type="line"/>
      <point x="283" y="0" type="line"/>
      <point x="50" y="722" type="line"/>
      <point x="152" y="722" type="line"/>
      <point x="321" y="159" type="line"/>
      <point x="457" y="722" type="line"/>
      <point x="545" y="722" type="line"/>
      <point x="676" y="163" type="line"/>
      <point x="828" y="722" type="line"/>
    </contour>
  </outline>
</glyph>
<glyph name="X" format="1">
  <advance width="695"/>
  <unicode hex="0058"/>
  <outline>
    <contour>
      <point x="71" y="722" type="line"/>
      <point x="180" y="722" type="line"/>
      <point x="354" y="453" type="line"/>
      <point x="554" y="722" type="line"/>
      <point x="666" y="722" type="line"/>
      <point x="408" y="370" type="line"/>
      <point x="648" y="0" type="line"/>
      <point x="539" y="0" type="line"/>
      <point x="352" y="289" type="line"/>
      <point x="141" y="0" type="line"/>
      <point x="29" y="0" type="line"/>
      <point x="300" y="369" type="line"/>
    </contour>
  </outline>
</glyph>
<glyph name="Y" format="1">
  <advance width="628"/>
  <unicode hex="0059"/>
  <outline>
    <contour>
      <point x="513" y="722" type="line"/>
      <point x="622" y="722" type="line"/>
      <point x="376" y="335" type="line"/>
      <point x="376" y="0" type="line"/>
      <point x="273" y="0" type="line"/>
      <point x="273" y="313" type="line"/>
      <point x="40" y="722" type="line"/>
      <point x="145" y="722" type="line"/>
      <point x="320" y="422" type="line"/>
    </contour>
  </outline>
</glyph>
<glyph name="Z" format="1">
  <advance width="672"/>
  <unicode hex="005A"/>
  <outline>
    <contour>
      <point x="113" y="617" type="line"/>
      <point x="113" y="713" type="line"/>
      <point x="605" y="713" type="line"/>
      <point x="605" y="617" type="line"/>
      <point x="163" y="98" type="line"/>
      <point x="630" y="98" type="line"/>
      <point x="630" y="2" type="line"/>
      <point x="48" y="2" type="line"/>
      <point x="48" y="98" type="line"/>
      <point x="490" y="617" type="line"/>
    </contour>
  </outline>
</glyph>
<glyph name="underscore" format="1">
  <advance width="720"/>
  <unicode hex="005F"/>
  <outline>
    <contour>
      <point x="36" y="-156" type="line"/>
      <point x="692" y="-156" type="line"/>
      <point x="692" y="-258" type="line"/>
      <point x="36" y="-258" type="line"/>
    </contour>
  </outline>
</glyph>
<glyph name="grave" format="1">
  <advance width="352"/>
  <unicode hex="0060"/>
  <outline>
    <contour>
      <point x="213" y="656" type="line"/>
      <point x="65" y="846" type="line"/>
      <point x="174" y="846" type="line"/>
      <point x="316" y="656" type="line"/>
    </contour>
  </outline>
</glyph>
<glyph name="a" format="1">
  <advance width="627"/>
  <unicode hex="0061"/>
  <outline>
    <contour>
      <point x="414" y="334" type="curve"/>
      <point x="414" y="413"/>
      <point x="350" y="459"/>
      <point x="260" y="459" type="curve" smooth="yes"/>
      <point x="215" y="459"/>
      <point x="170" y="446"/>
      <point x="132" y="421" type="curve"/>
      <point x="86" y="493" type="line"/>
      <point x="141" y="528"/>
      <point x="204" y="545"/>
      <point x="269" y="545" type="curve" smooth="yes"/>
      <point x="412" y="545"/>
      <point x="516" y="474"/>
      <point x="516" y="347" type="curve" smooth="yes"/>
      <point x="516" y="0" type="line"/>
      <point x="414" y="0" type="line"/>
      <point x="414" y="72" type="line"/>
      <point x="366" y="21"/>
      <point x="309" y="-11"/>
      <point x="241" y="-11" type="curve" smooth="yes"/>
      <point x="136" y="-11"/>
      <point x="65" y="53"/>
      <point x="65" y="145" type="curve" smooth="yes"/>
      <point x="65" y="279"/>
      <point x="197" y="336"/>
      <point x="353" y="336" type="curve" smooth="yes"/>
      <point x="373" y="336"/>
      <point x="393" y="336"/>
    </contour>
    <contour>
      <point x="414" y="260" type="line"/>
      <point x="389" y="263"/>
      <point x="364" y="264"/>
      <point x="340" y="264" type="curve" smooth="yes"/>
      <point x="243" y="264"/>
      <point x="167" y="237"/>
      <point x="167" y="153" type="curve" smooth="yes"/>
      <point x="167" y="107"/>
      <point x="206" y="81"/>
      <point x="255" y="81" type="curve" smooth="yes"/>
      <point x="257" y="81" type="line" smooth="yes"/>
      <point x="326" y="81"/>
      <point x="376" y="116"/>
      <point x="414" y="170" type="curve"/>
    </contour>
  </outline>
</glyph>
<glyph name="b" format="1">
  <advance width="604"/>
  <unicode hex="0062"/>
  <outline>
    <contour>
      <point x="322" y="-4" type="curve" smooth="yes"/>
      <point x="258" y="-4"/>
      <point x="210" y="14"/>
      <point x="171" y="44" type="curve"/>
      <point x="171" y="0" type="line"/>
      <point x="68" y="0" type="line"/>
      <point x="68" y="783" type="line"/>
      <point x="171" y="783" type="line"/>
      <point x="171" y="482" type="line"/>
      <point x="218" y="518"/>
      <point x="277" y="540"/>
      <point x="335" y="540" type="curve" smooth="yes"/>
      <point x="479" y="540"/>
      <point x="565" y="416"/>
      <point x="565" y="263" type="curve" smooth="yes"/>
      <point x="565" y="110"/>
      <point x="465" y="-4"/>
    </contour>
    <contour>
      <point x="297" y="465" type="curve" smooth="yes"/>
      <point x="247" y="465"/>
      <point x="203" y="442"/>
      <point x="171" y="407" type="curve"/>
      <point x="171" y="134" type="line"/>
      <point x="200" y="96"/>
      <point x="244" y="74"/>
      <point x="292" y="74" type="curve" smooth="yes"/>
      <point x="403" y="74"/>
      <point x="460" y="160"/>
      <point x="460" y="255" type="curve" smooth="yes"/>
      <point x="460" y="370"/>
      <point x="397" y="465"/>
    </contour>
  </outline>
</glyph>
<glyph name="c" format="1">
  <advance width="484"/>
  <unicode hex="0063"/>
  <outline>
    <contour>
      <point x="153" y="264" type="curve" smooth="yes"/>
      <point x="153" y="164"/>
      <point x="216" y="84"/>
      <point x="326" y="84" type="curve" smooth="yes"/>
      <point x="366" y="84"/>
      <point x="402" y="100"/>
      <point x="432" y="129" type="curve"/>
      <point x="484" y="61" type="line"/>
      <point x="434" y="14"/>
      <point x="375" y="-10"/>
      <point x="310" y="-10" type="curve" smooth="yes"/>
      <point x="144" y="-10"/>
      <point x="48" y="108"/>
      <point x="48" y="269" type="curve" smooth="yes"/>
      <point x="48" y="424"/>
      <point x="153" y="539"/>
      <point x="312" y="539" type="curve" smooth="yes"/>
      <point x="316" y="539" type="line"/>
      <point x="374" y="538"/>
      <point x="422" y="521"/>
      <point x="467" y="485" type="curve"/>
      <point x="424" y="412" type="line"/>
      <point x="393" y="437"/>
      <point x="358" y="450"/>
      <point x="322" y="450" type="curve" smooth="yes"/>
      <point x="212" y="450"/>
      <point x="153" y="365"/>
    </contour>
  </outline>
</glyph>
<glyph name="d" format="1">
  <advance width="638"/>
  <unicode hex="0064"/>
  <outline>
    <contour>
      <point x="327" y="454" type="curve" smooth="yes"/>
      <point x="216" y="454"/>
      <point x="161" y="372"/>
      <point x="161" y="268" type="curve" smooth="yes"/>
      <point x="161" y="158"/>
      <point x="228" y="76"/>
      <point x="324" y="76" type="curve" smooth="yes"/>
      <point x="389" y="76"/>
      <point x="436" y="105"/>
      <point x="463" y="148" type="curve"/>
      <point x="463" y="290" type="line"/>
      <point x="463" y="410" type="line"/>
      <point x="424" y="438"/>
      <point x="374" y="454"/>
    </contour>
    <contour>
      <point x="295" y="542" type="curve" smooth="yes"/>
      <point x="365" y="542"/>
      <point x="419" y="516"/>
      <point x="463" y="483" type="curve"/>
      <point x="463" y="583"/>
      <point x="462" y="683"/>
      <point x="461" y="783" type="curve"/>
      <point x="564" y="783" type="line"/>
      <point x="565" y="652"/>
      <point x="566" y="521"/>
      <point x="566" y="389" type="curve" smooth="yes"/>
      <point x="566" y="296"/>
      <point x="565" y="202"/>
      <point x="565" y="109" type="curve" smooth="yes"/>
      <point x="565" y="73"/>
      <point x="565" y="36"/>
      <point x="564" y="0" type="curve"/>
      <point x="462" y="0" type="line"/>
      <point x="462" y="57" type="line"/>
      <point x="419" y="17"/>
      <point x="360" y="-6"/>
      <point x="295" y="-6" type="curve" smooth="yes"/>
      <point x="147" y="-6"/>
      <point x="57" y="110"/>
      <point x="57" y="266" type="curve" smooth="yes"/>
      <point x="57" y="427"/>
      <point x="160" y="542"/>
    </contour>
  </outline>
</glyph>
<glyph name="e" format="1">
  <advance width="577"/>
  <unicode hex="0065"/>
  <outline>
    <contour>
      <point x="293" y="543" type="curve" smooth="yes"/>
      <point x="442" y="543"/>
      <point x="525" y="441"/>
      <point x="525" y="292" type="curve" smooth="yes"/>
      <point x="525" y="274"/>
      <point x="524" y="257"/>
      <point x="521" y="239" type="curve"/>
      <point x="158" y="239" type="line"/>
      <point x="174" y="144"/>
      <point x="237" y="81"/>
      <point x="336" y="81" type="curve" smooth="yes"/>
      <point x="338" y="81" type="line"/>
      <point x="382" y="82"/>
      <point x="426" y="96"/>
      <point x="461" y="123" type="curve"/>
      <point x="514" y="54" type="line"/>
      <point x="457" y="13"/>
      <point x="389" y="-9"/>
      <point x="319" y="-9" type="curve" smooth="yes"/>
      <point x="148" y="-9"/>
      <point x="51" y="103"/>
      <point x="51" y="268" type="curve" smooth="yes"/>
      <point x="51" y="427"/>
      <point x="151" y="543"/>
    </contour>
    <contour>
      <point x="423" y="318" type="line"/>
      <point x="414" y="396"/>
      <point x="367" y="452"/>
      <point x="294" y="452" type="curve" smooth="yes"/>
      <point x="214" y="452"/>
      <point x="167" y="394"/>
      <point x="156" y="318" type="curve"/>
    </contour>
  </outline>
</glyph>
<glyph name="f" format="1">
  <advance width="478"/>
  <unicode hex="0066"/>
  <outline>
    <contour>
      <point x="274" y="528" type="line"/>
      <point x="461" y="528" type="line"/>
      <point x="461" y="433" type="line"/>
      <point x="274" y="433" type="line"/>
      <point x="274" y="0" type="line"/>
      <point x="171" y="0" type="line"/>
      <point x="171" y="433" type="line"/>
      <point x="29" y="433" type="line"/>
      <point x="29" y="528" type="line"/>
      <point x="171" y="528" type="line"/>
      <point x="171" y="593" type="line" smooth="yes"/>
      <point x="171" y="724"/>
      <point x="260" y="810"/>
      <point x="370" y="810" type="curve" smooth="yes"/>
      <point x="405" y="810"/>
      <point x="441" y="801"/>
      <point x="478" y="783" type="curve"/>
      <point x="448" y="702" type="line"/>
      <point x="427" y="712"/>
      <point x="407" y="716"/>
      <point x="388" y="716" type="curve" smooth="yes"/>
      <point x="325" y="716"/>
      <point x="274" y="667"/>
      <point x="274" y="593" type="curve" smooth="yes"/>
    </contour>
  </outline>
</glyph>
<glyph name="g" format="1">
  <advance width="593"/>
  <unicode hex="0067"/>
  <outline>
    <contour>
      <point x="463" y="-110" type="curve" smooth="yes"/>
      <point x="463" y="-40"/>
      <point x="389" y="-21"/>
      <point x="326" y="-21" type="curve" smooth="yes"/>
      <point x="257" y="-21"/>
      <point x="196" y="-20"/>
      <point x="151" y="-5" type="curve"/>
      <point x="131" y="-29"/>
      <point x="118" y="-60"/>
      <point x="118" y="-93" type="curve" smooth="yes"/>
      <point x="118" y="-180"/>
      <point x="189" y="-217"/>
      <point x="283" y="-217" type="curve" smooth="yes"/>
      <point x="374" y="-217"/>
      <point x="463" y="-176"/>
    </contour>
    <contour>
      <point x="260" y="-310" type="line" smooth="yes"/>
      <point x="135" y="-310"/>
      <point x="40" y="-252"/>
      <point x="40" y="-126" type="curve" smooth="yes"/>
      <point x="40" y="-69"/>
      <point x="63" y="-16"/>
      <point x="103" y="23" type="curve"/>
      <point x="82" y="43"/>
      <point x="69" y="74"/>
      <point x="69" y="118" type="curve" smooth="yes"/>
      <point x="69" y="162"/>
      <point x="87" y="199"/>
      <point x="118" y="224" type="curve"/>
      <point x="86" y="255"/>
      <point x="65" y="295"/>
      <point x="65" y="347" type="curve" smooth="yes"/>
      <point x="65" y="458"/>
      <point x="167" y="540"/>
      <point x="286" y="540" type="curve" smooth="yes"/>
      <point x="329" y="540"/>
      <point x="364" y="530"/>
      <point x="397" y="513" type="curve"/>
      <point x="576" y="514" type="line"/>
      <point x="576" y="436" type="line"/>
      <point x="478" y="435" type="line"/>
      <point x="490" y="413"/>
      <point x="497" y="388"/>
      <point x="497" y="357" type="curve" smooth="yes"/>
      <point x="497" y="249"/>
      <point x="397" y="163"/>
      <point x="276" y="163" type="curve" smooth="yes"/>
      <point x="274" y="163" type="line" smooth="yes"/>
      <point x="235" y="163"/>
      <point x="197" y="173"/>
      <point x="164" y="190" type="curve"/>
      <point x="155" y="177"/>
      <point x="151" y="160"/>
      <point x="151" y="142" type="curve" smooth="yes"/>
      <point x="151" y="73"/>
      <point x="198" y="63"/>
      <point x="266" y="63" type="curve" smooth="yes"/>
      <point x="295" y="63"/>
      <point x="327" y="65"/>
      <point x="361" y="65" type="curve" smooth="yes"/>
      <point x="458" y="65"/>
      <point x="557" y="13"/>
      <point x="557" y="-98" type="curve" smooth="yes"/>
      <point x="557" y="-214"/>
      <point x="422" y="-309"/>
      <point x="263" y="-310" type="curve"/>
    </contour>
    <contour>
      <point x="284" y="458" type="curve" smooth="yes"/>
      <point x="217" y="458"/>
      <point x="166" y="410"/>
      <point x="166" y="351" type="curve" smooth="yes"/>
      <point x="167" y="290"/>
      <point x="223" y="245"/>
      <point x="287" y="245" type="curve" smooth="yes"/>
      <point x="289" y="245" type="line"/>
      <point x="349" y="247"/>
      <point x="403" y="287"/>
      <point x="403" y="350" type="curve" smooth="yes"/>
      <point x="403" y="411"/>
      <point x="348" y="458"/>
    </contour>
  </outline>
</glyph>
<glyph name="h" format="1">
  <advance width="591"/>
  <unicode hex="0068"/>
  <outline>
    <contour>
      <point x="421" y="320" type="curve" smooth="yes"/>
      <point x="421" y="392"/>
      <point x="376" y="450"/>
      <point x="302" y="450" type="curve" smooth="yes"/>
      <point x="258" y="450"/>
      <point x="209" y="427"/>
      <point x="177" y="393" type="curve"/>
      <point x="177" y="262"/>
      <point x="178" y="131"/>
      <point x="178" y="0" type="curve"/>
      <point x="75" y="0" type="line"/>
      <point x="75" y="783" type="line"/>
      <point x="177" y="783" type="line"/>
      <point x="177" y="727" type="line"/>
      <point x="177" y="485" type="line"/>
      <point x="223" y="522"/>
      <point x="282" y="545"/>
      <point x="339" y="545" type="curve" smooth="yes"/>
      <point x="467" y="545"/>
      <point x="523" y="442"/>
      <point x="523" y="329" type="curve" smooth="yes"/>
      <point x="523" y="219"/>
      <point x="524" y="110"/>
      <point x="524" y="0" type="curve"/>
      <point x="422" y="0" type="line"/>
      <point x="421" y="107"/>
      <point x="421" y="213"/>
    </contour>
  </outline>
</glyph>
<glyph name="i" format="1">
  <advance width="272"/>
  <unicode hex="0069"/>
  <outline>
    <contour>
      <point x="84" y="690" type="line"/>
      <point x="84" y="824" type="line"/>
      <point x="193" y="824" type="line"/>
      <point x="193" y="690" type="line"/>
    </contour>
    <contour>
      <point x="88" y="0" type="line"/>
      <point x="87" y="533" type="line"/>
      <point x="190" y="533" type="line"/>
      <point x="190" y="0" type="line"/>
    </contour>
  </outline>
</glyph>
<glyph name="j" format="1">
  <advance width="370"/>
  <unicode hex="006A"/>
  <outline>
    <contour>
      <point x="156" y="683" type="line"/>
      <point x="156" y="823" type="line"/>
      <point x="264" y="823" type="line"/>
      <point x="264" y="683" type="line"/>
    </contour>
    <contour>
      <point x="44" y="-213" type="line"/>
      <point x="50" y="-214"/>
      <point x="55" y="-214"/>
      <point x="60" y="-214" type="curve" smooth="yes"/>
      <point x="113" y="-214"/>
      <point x="159" y="-171"/>
      <point x="159" y="-116" type="curve" smooth="yes"/>
      <point x="159" y="535" type="line"/>
      <point x="261" y="535" type="line"/>
      <point x="261" y="-116" type="line" smooth="yes"/>
      <point x="261" y="-225"/>
      <point x="174" y="-310"/>
      <point x="68" y="-310" type="curve" smooth="yes"/>
      <point x="60" y="-310"/>
      <point x="52" y="-310"/>
      <point x="44" y="-309" type="curve"/>
    </contour>
  </outline>
</glyph>
<glyph name="k" format="1">
  <advance width="619"/>
  <unicode hex="006B"/>
  <outline>
    <contour>
      <point x="106" y="0" type="line"/>
      <point x="106" y="783" type="line"/>
      <point x="209" y="783" type="line"/>
      <point x="209" y="337" type="line"/>
      <point x="441" y="533" type="line"/>
      <point x="571" y="533" type="line"/>
      <point x="291" y="292" type="line"/>
      <point x="594" y="0" type="line"/>
      <point x="467" y="0" type="line"/>
      <point x="209" y="245" type="line"/>
      <point x="209" y="0" type="line"/>
    </contour>
  </outline>
</glyph>
<glyph name="l" format="1">
  <advance width="289"/>
  <unicode hex="006C"/>
  <outline>
    <contour>
      <point x="96" y="1" type="line"/>
      <point x="95" y="783" type="line"/>
      <point x="198" y="783" type="line"/>
      <point x="198" y="1" type="line"/>
    </contour>
  </outline>
</glyph>
<glyph name="m" format="1">
  <advance width="940"/>
  <unicode hex="006D"/>
  <outline>
    <contour>
      <point x="686" y="544" type="curve" smooth="yes"/>
      <point x="808" y="544"/>
      <point x="864" y="453"/>
      <point x="864" y="346" type="curve" smooth="yes"/>
      <point x="864" y="231"/>
      <point x="864" y="116"/>
      <point x="865" y="1" type="curve"/>
      <point x="762" y="1" type="line"/>
      <point x="762" y="342" type="line" smooth="yes"/>
      <point x="762" y="404"/>
      <point x="716" y="449"/>
      <point x="653" y="449" type="curve" smooth="yes"/>
      <point x="651" y="449" type="line"/>
      <point x="605" y="448"/>
      <point x="557" y="425"/>
      <point x="524" y="390" type="curve"/>
      <point x="526" y="377"/>
      <point x="527" y="364"/>
      <point x="527" y="350" type="curve" smooth="yes"/>
      <point x="527" y="234"/>
      <point x="526" y="118"/>
      <point x="525" y="1" type="curve"/>
      <point x="423" y="1" type="line"/>
      <point x="424" y="119"/>
      <point x="424" y="236"/>
      <point x="424" y="353" type="curve" smooth="yes"/>
      <point x="424" y="412"/>
      <point x="381" y="452"/>
      <point x="321" y="453" type="curve"/>
      <point x="319" y="453" type="line" smooth="yes"/>
      <point x="271" y="453"/>
      <point x="221" y="430"/>
      <point x="187" y="394" type="curve"/>
      <point x="187" y="253"/>
      <point x="187" y="147"/>
      <point x="186" y="0" type="curve"/>
      <point x="83" y="0" type="line"/>
      <point x="84" y="159"/>
      <point x="84" y="271"/>
      <point x="85" y="431" type="curve"/>
      <point x="85" y="533" type="line"/>
      <point x="187" y="533" type="line"/>
      <point x="187" y="484" type="line"/>
      <point x="231" y="523"/>
      <point x="290" y="546"/>
      <point x="348" y="546" type="curve" smooth="yes"/>
      <point x="425" y="546"/>
      <point x="475" y="510"/>
      <point x="502" y="459" type="curve"/>
      <point x="547" y="511"/>
      <point x="617" y="544"/>
    </contour>
  </outline>
</glyph>
<glyph name="n" format="1">
  <advance width="603"/>
  <unicode hex="006E"/>
  <outline>
    <contour>
      <point x="354" y="543" type="curve" smooth="yes"/>
      <point x="476" y="543"/>
      <point x="535" y="456"/>
      <point x="535" y="345" type="curve" smooth="yes"/>
      <point x="536" y="0" type="line"/>
      <point x="433" y="0" type="line"/>
      <point x="433" y="338" type="line" smooth="yes"/>
      <point x="433" y="404"/>
      <point x="387" y="448"/>
      <point x="321" y="448" type="curve" smooth="yes"/>
      <point x="268" y="448"/>
      <point x="216" y="422"/>
      <point x="180" y="384" type="curve"/>
      <point x="180" y="256"/>
      <point x="179" y="128"/>
      <point x="178" y="0" type="curve"/>
      <point x="76" y="0" type="line"/>
      <point x="77" y="144"/>
      <point x="77" y="287"/>
      <point x="78" y="431" type="curve"/>
      <point x="78" y="533" type="line"/>
      <point x="180" y="533" type="line"/>
      <point x="180" y="474" type="line"/>
      <point x="227" y="517"/>
      <point x="291" y="543"/>
    </contour>
  </outline>
</glyph>
<glyph name="o" format="1">
  <advance width="616"/>
  <unicode hex="006F"/>
  <outline>
    <contour>
      <point x="158" y="278" type="curve" smooth="yes"/>
      <point x="158" y="169"/>
      <point x="215" y="88"/>
      <point x="307" y="88" type="curve" smooth="yes"/>
      <point x="409" y="88"/>
      <point x="457" y="164"/>
      <point x="457" y="264" type="curve" smooth="yes"/>
      <point x="457" y="370"/>
      <point x="398" y="448"/>
      <point x="306" y="448" type="curve" smooth="yes"/>
      <point x="204" y="448"/>
      <point x="158" y="372"/>
    </contour>
    <contour>
      <point x="309" y="-8" type="curve" smooth="yes"/>
      <point x="144" y="-8"/>
      <point x="53" y="106"/>
      <point x="53" y="266" type="curve" smooth="yes"/>
      <point x="53" y="425"/>
      <point x="153" y="540"/>
      <point x="306" y="540" type="curve" smooth="yes"/>
      <point x="469" y="540"/>
      <point x="560" y="428"/>
      <point x="560" y="270" type="curve" smooth="yes"/>
      <point x="560" y="107"/>
      <point x="459" y="-8"/>
    </contour>
  </outline>
</glyph>
<glyph name="p" format="1">
  <advance width="633"/>
  <unicode hex="0070"/>
  <outline>
    <contour>
      <point x="323" y="-8" type="curve" smooth="yes"/>
      <point x="264" y="-8"/>
      <point x="220" y="6"/>
      <point x="180" y="31" type="curve"/>
      <point x="180" y="-79"/>
      <point x="179" y="-189"/>
      <point x="178" y="-300" type="curve"/>
      <point x="75" y="-300" type="line"/>
      <point x="77" y="-173"/>
      <point x="77" y="-47"/>
      <point x="77" y="79" type="curve" smooth="yes"/>
      <point x="77" y="182"/>
      <point x="77" y="286"/>
      <point x="76" y="389" type="curve" smooth="yes"/>
      <point x="76" y="437"/>
      <point x="76" y="485"/>
      <point x="75" y="533" type="curve"/>
      <point x="178" y="533" type="line"/>
      <point x="178" y="470" type="line"/>
      <point x="230" y="513"/>
      <point x="297" y="540"/>
      <point x="361" y="540" type="curve" smooth="yes"/>
      <point x="503" y="540"/>
      <point x="582" y="413"/>
      <point x="582" y="272" type="curve" smooth="yes"/>
      <point x="582" y="110"/>
      <point x="476" y="-8"/>
    </contour>
    <contour>
      <point x="323" y="464" type="curve" smooth="yes"/>
      <point x="262" y="464"/>
      <point x="211" y="428"/>
      <point x="179" y="383" type="curve"/>
      <point x="180" y="297"/>
      <point x="180" y="212"/>
      <point x="180" y="126" type="curve" smooth="yes"/>
      <point x="180" y="112" type="line"/>
      <point x="213" y="89"/>
      <point x="251" y="77"/>
      <point x="291" y="77" type="curve" smooth="yes"/>
      <point x="411" y="77"/>
      <point x="481" y="160"/>
      <point x="481" y="275" type="curve" smooth="yes"/>
      <point x="481" y="378"/>
      <point x="415" y="464"/>
    </contour>
  </outline>
</glyph>
<glyph name="q" format="1">
  <advance width="641"/>
  <unicode hex="0071"/>
  <outline>
    <contour>
      <point x="313" y="539" type="curve" smooth="yes"/>
      <point x="377" y="539"/>
      <point x="425" y="520"/>
      <point x="465" y="491" type="curve"/>
      <point x="465" y="533" type="line"/>
      <point x="568" y="533" type="line"/>
      <point x="568" y="-300" type="line"/>
      <point x="465" y="-300" type="line"/>
      <point x="465" y="28" type="line"/>
      <point x="423" y="4"/>
      <point x="376" y="-8"/>
      <point x="327" y="-8" type="curve" smooth="yes"/>
      <point x="168" y="-8"/>
      <point x="50" y="100"/>
      <point x="50" y="266" type="curve" smooth="yes"/>
      <point x="50" y="418"/>
      <point x="165" y="539"/>
    </contour>
    <contour>
      <point x="157" y="272" type="curve" smooth="yes"/>
      <point x="157" y="148"/>
      <point x="245" y="67"/>
      <point x="357" y="66" type="curve" smooth="yes"/>
      <point x="396" y="66"/>
      <point x="433" y="77"/>
      <point x="465" y="97" type="curve"/>
      <point x="465" y="411" type="line"/>
      <point x="431" y="443"/>
      <point x="386" y="461"/>
      <point x="339" y="461" type="curve" smooth="yes"/>
      <point x="227" y="461"/>
      <point x="157" y="373"/>
    </contour>
  </outline>
</glyph>
<glyph name="r" format="1">
  <advance width="422"/>
  <unicode hex="0072"/>
  <outline>
    <contour>
      <point x="362" y="448" type="curve" smooth="yes"/>
      <point x="283" y="448"/>
      <point x="226" y="410"/>
      <point x="181" y="366" type="curve"/>
      <point x="181" y="0" type="line"/>
      <point x="79" y="0" type="line"/>
      <point x="79" y="533" type="line"/>
      <point x="181" y="533" type="line"/>
      <point x="181" y="469" type="line"/>
      <point x="227" y="508"/>
      <point x="288" y="542"/>
      <point x="365" y="542" type="curve" smooth="yes"/>
      <point x="377" y="542"/>
      <point x="390" y="541"/>
      <point x="402" y="539" type="curve"/>
      <point x="391" y="446" type="line"/>
      <point x="381" y="447"/>
      <point x="372" y="448"/>
    </contour>
  </outline>
</glyph>
<glyph name="s" format="1">
  <advance width="504"/>
  <unicode hex="0073"/>
  <outline>
    <contour>
      <point x="267" y="457" type="curve" smooth="yes"/>
      <point x="215" y="457"/>
      <point x="169" y="438"/>
      <point x="169" y="393" type="curve" smooth="yes"/>
      <point x="169" y="333"/>
      <point x="238" y="321"/>
      <point x="298" y="307" type="curve" smooth="yes"/>
      <point x="382" y="286"/>
      <point x="463" y="245"/>
      <point x="463" y="152" type="curve" smooth="yes"/>
      <point x="463" y="51"/>
      <point x="349" y="-6"/>
      <point x="223" y="-6" type="curve" smooth="yes"/>
      <point x="149" y="-6"/>
      <point x="83" y="14"/>
      <point x="20" y="53" type="curve"/>
      <point x="63" y="132" type="line"/>
      <point x="118" y="99"/>
      <point x="176" y="83"/>
      <point x="240" y="83" type="curve" smooth="yes"/>
      <point x="294" y="83"/>
      <point x="349" y="94"/>
      <point x="354" y="143" type="curve"/>
      <point x="358" y="198"/>
      <point x="293" y="212"/>
      <point x="233" y="227" type="curve" smooth="yes"/>
      <point x="148" y="248"/>
      <point x="66" y="292"/>
      <point x="66" y="394" type="curve" smooth="yes"/>
      <point x="66" y="481"/>
      <point x="147" y="540"/>
      <point x="253" y="540" type="curve" smooth="yes"/>
      <point x="323" y="540"/>
      <point x="378" y="522"/>
      <point x="433" y="491" type="curve"/>
      <point x="396" y="414" type="line"/>
      <point x="357" y="443"/>
      <point x="314" y="457"/>
    </contour>
  </outline>
</glyph>
<glyph name="t" format="1">
  <advance width="449"/>
  <unicode hex="0074"/>
  <outline>
    <contour>
      <point x="27" y="432" type="line"/>
      <point x="26" y="525" type="line"/>
      <point x="148" y="525" type="line"/>
      <point x="148" y="622" type="line"/>
      <point x="250" y="684" type="line"/>
      <point x="250" y="525" type="line"/>
      <point x="427" y="525" type="line"/>
      <point x="427" y="432" type="line"/>
      <point x="250" y="432" type="line"/>
      <point x="250" y="210" type="line" smooth="yes"/>
      <point x="250" y="143"/>
      <point x="261" y="81"/>
      <point x="319" y="81" type="curve" smooth="yes"/>
      <point x="343" y="81"/>
      <point x="368" y="88"/>
      <point x="389" y="100" type="curve"/>
      <point x="420" y="23" type="line"/>
      <point x="376" y="4"/>
      <point x="329" y="-6"/>
      <point x="281" y="-6" type="curve" smooth="yes"/>
      <point x="197" y="-6"/>
      <point x="148" y="61"/>
      <point x="148" y="149" type="curve" smooth="yes"/>
      <point x="148" y="432" type="line"/>
    </contour>
  </outline>
</glyph>
<glyph name="u" format="1">
  <advance width="602"/>
  <unicode hex="0075"/>
  <outline>
    <contour>
      <point x="183" y="201" type="line" smooth="yes"/>
      <point x="183" y="126"/>
      <point x="227" y="68"/>
      <point x="309" y="68" type="curve" smooth="yes"/>
      <point x="360" y="68"/>
      <point x="404" y="94"/>
      <point x="430" y="134" type="curve"/>
      <point x="430" y="533" type="line"/>
      <point x="533" y="533" type="line"/>
      <point x="533" y="0" type="line"/>
      <point x="430" y="0" type="line"/>
      <point x="430" y="48" type="line"/>
      <point x="387" y="11"/>
      <point x="331" y="-11"/>
      <point x="271" y="-11" type="curve" smooth="yes"/>
      <point x="153" y="-11"/>
      <point x="80" y="63"/>
      <point x="80" y="167" type="curve" smooth="yes"/>
      <point x="80" y="533" type="line"/>
      <point x="183" y="533" type="line"/>
    </contour>
  </outline>
</glyph>
<glyph name="v" format="1">
  <advance width="576"/>
  <unicode hex="0076"/>
  <outline>
    <contour>
      <point x="30" y="533" type="line"/>
      <point x="138" y="533" type="line"/>
      <point x="284" y="118" type="line"/>
      <point x="440" y="533" type="line"/>
      <point x="548" y="533" type="line"/>
      <point x="336" y="0" type="line"/>
      <point x="240" y="0" type="line"/>
    </contour>
  </outline>
</glyph>
<glyph name="w" format="1">
  <advance width="935"/>
  <unicode hex="0077"/>
  <outline>
    <contour>
      <point x="51" y="533" type="line"/>
      <point x="153" y="533" type="line"/>
      <point x="288" y="126" type="line"/>
      <point x="420" y="533" type="line"/>
      <point x="516" y="533" type="line"/>
      <point x="632" y="120" type="line"/>
      <point x="797" y="533" type="line"/>
      <point x="908" y="533" type="line"/>
      <point x="680" y="0" type="line"/>
      <point x="584" y="0" type="line"/>
      <point x="467" y="381" type="line"/>
      <point x="344" y="0" type="line"/>
      <point x="247" y="0" type="line"/>
    </contour>
  </outline>
</glyph>
<glyph name="x" format="1">
  <advance width="582"/>
  <unicode hex="0078"/>
  <outline>
    <contour>
      <point x="75" y="533" type="line"/>
      <point x="195" y="533" type="line"/>
      <point x="300" y="370" type="line"/>
      <point x="426" y="533" type="line"/>
      <point x="541" y="533" type="line"/>
      <point x="359" y="279" type="line"/>
      <point x="539" y="0" type="line"/>
      <point x="420" y="0" type="line"/>
      <point x="299" y="187" type="line"/>
      <point x="153" y="0" type="line"/>
      <point x="38" y="0" type="line"/>
      <point x="241" y="276" type="line"/>
    </contour>
  </outline>
</glyph>
<glyph name="y" format="1">
  <advance width="586"/>
  <unicode hex="0079"/>
  <outline>
    <contour>
      <point x="37" y="533" type="line"/>
      <point x="147" y="533" type="line"/>
      <point x="289" y="192" type="line"/>
      <point x="451" y="533" type="line"/>
      <point x="553" y="533" type="line"/>
      <point x="166" y="-300" type="line"/>
      <point x="56" y="-300" type="line"/>
      <point x="237" y="81" type="line"/>
    </contour>
  </outline>
</glyph>
<glyph name="z" format="1">
  <advance width="506"/>
  <unicode hex="007A"/>
  <outline>
    <contour>
      <point x="76" y="432" type="line"/>
      <point x="76" y="525" type="line"/>
      <point x="472" y="526" type="line"/>
      <point x="472" y="433" type="line"/>
      <point x="150" y="93" type="line"/>
      <point x="482" y="93" type="line"/>
      <point x="482" y="0" type="line"/>
      <point x="31" y="0" type="line"/>
      <point x="31" y="93" type="line"/>
      <point x="353" y="433" type="line"/>
    </contour>
  </outline>
</glyph>
<glyph name=".notdef" format="1">
  <advance width="500"/>
  <outline>
    <contour>
      <point x="50" y="0" type="line"/>
      <point x="50" y="533" type="line"/>
      <point x="450" y="533" type="line"/>
      <point x="450" y="0" type="line"/>
    </contour>
    <contour>
      <point x="100" y="50" type="line"/>
      <point x="400" y="50" type="line"/>
      <point x="400" y="483" type="line"/>
      <point x="100" y="483" type="line"/>
    </contour>
  </outline>
</glyph>
